<svg width="366" height="366" viewBox="0 0 366 366" fill="none" xmlns="http://www.w3.org/2000/svg">
<mask id="mask0_325_588" style="mask-type:luminance" maskUnits="userSpaceOnUse" x="0" y="0" width="366" height="366">
<path d="M0 0H366V366H0V0Z" fill="white"/>
</mask>
<g mask="url(#mask0_325_588)">
<path fill-rule="evenodd" clip-rule="evenodd" d="M183 0C81.8925 0 0 81.8925 0 183C0 263.977 52.3838 332.374 125.126 356.621C134.276 358.222 137.707 352.732 137.707 347.929C137.707 343.582 137.479 329.171 137.479 313.845C91.5 322.309 79.605 302.636 75.945 292.342C73.8863 287.081 64.965 270.84 57.1875 266.494C50.7825 263.062 41.6325 254.599 56.9587 254.37C71.37 254.141 81.6637 267.637 85.095 273.127C101.565 300.806 127.871 293.029 138.394 288.225C139.995 276.33 144.799 268.324 150.06 263.749C109.342 259.174 66.795 243.39 66.795 173.392C66.795 153.491 73.8863 137.021 85.5525 124.211C83.7225 119.636 77.3175 100.879 87.3825 75.7162C87.3825 75.7162 102.709 70.9125 137.707 94.4737C152.347 90.3562 167.902 88.2975 183.457 88.2975C199.012 88.2975 214.567 90.3562 229.207 94.4737C264.206 70.6837 279.533 75.7162 279.533 75.7162C289.598 100.879 283.193 119.636 281.363 124.211C293.029 137.021 300.12 153.262 300.12 173.392C300.12 243.619 257.344 259.174 216.626 263.749C223.26 269.467 228.979 280.447 228.979 297.604C228.979 322.08 228.75 341.752 228.75 347.929C228.75 352.732 232.181 358.451 241.331 356.621C277.659 344.356 309.227 321.008 331.591 289.862C353.955 258.717 365.989 221.343 366 183C366 81.8925 284.108 0 183 0Z" fill="#9803FC"/>
</g>
</svg>
