<svg width="18" height="20" viewBox="0 0 18 20" fill="none" xmlns="http://www.w3.org/2000/svg">
<path d="M4.28589 1.71429H18.0002V13.7143H4.28589V1.71429Z" fill="white"/>
<path d="M6.00018 0H16.2859V2.57144H6.00018V0Z" fill="white"/>
<path d="M6.00018 12.8572H16.2859V15.4286H6.00018V12.8572Z" fill="white"/>
<path d="M5.14303 0.857146H17.1431V14.5715H5.14303V0.857146Z" fill="white"/>
<path d="M6.00018 2.57144H16.2859V12.8572H6.00018V2.57144Z" fill="#101010"/>
<path d="M6.85733 1.71429H15.4288V13.7143H6.85733V1.71429Z" fill="#101010"/>
<path d="M0 5.99994H13.7143V18H0V5.99994Z" fill="white"/>
<path d="M1.71429 4.28564H12V6.85708H1.71429V4.28564Z" fill="white"/>
<path d="M1.71429 17.1428H12V19.7143H1.71429V17.1428Z" fill="white"/>
<path d="M0.857146 5.14279H12.8572V18.8571H0.857146V5.14279Z" fill="white"/>
<path d="M1.71429 6.85708H12V17.1428H1.71429V6.85708Z" fill="#101010"/>
<path d="M2.57144 5.99994H11.1429V18H2.57144V5.99994Z" fill="#101010"/>
</svg>
