<svg width="353" height="350" viewBox="0 0 353 350" fill="none" xmlns="http://www.w3.org/2000/svg">
<path d="M340.011 37.0079L267.49 2.18895C263.388 0.205845 258.77 -0.452156 254.276 0.306475C249.782 1.06511 245.637 3.20265 242.417 6.42175L103.512 132.911L42.9776 87.0979C40.2514 85.0179 36.88 83.9588 33.4515 84.1055C30.0229 84.2522 26.7547 85.5953 24.2168 87.9005L4.82811 105.535C3.31269 106.902 2.10034 108.57 1.26888 110.432C0.437426 112.294 0.00523397 114.309 4.72447e-05 116.347C-0.00513948 118.386 0.416794 120.403 1.23876 122.269C2.06073 124.135 3.26458 125.809 4.77303 127.183L57.2768 174.997L4.77303 222.812C3.26458 224.186 2.06073 225.86 1.23876 227.726C0.416794 229.592 -0.00513948 231.609 4.72447e-05 233.648C0.00523397 235.686 0.437426 237.701 1.26888 239.563C2.10034 241.425 3.31269 243.093 4.82811 244.459L24.2168 262.094C26.7547 264.4 30.0229 265.743 33.4515 265.889C36.88 266.036 40.2514 264.977 42.9776 262.897L103.512 217.029L242.483 343.573C245.69 346.795 249.826 348.935 254.312 349.694C258.798 350.453 263.41 349.793 267.501 347.806L340.088 312.932C343.828 311.143 346.983 308.332 349.187 304.825C351.39 301.318 352.552 297.259 352.536 293.12V56.7976C352.536 48.376 347.656 40.647 340.033 36.9859L340.011 37.0079ZM264.439 254.893L158.979 175.008L264.439 95.1238V254.893Z" fill="#9803FC"/>
</svg>
