<svg width="18" height="20" viewBox="0 0 18 20" fill="none" xmlns="http://www.w3.org/2000/svg">
<path d="M6.42857 18.1833H6.27857V18.3333V19.85H5.29286V18.3333V18.1833H5.14286H4.00714V16.6667V16.5167H3.85714H2.72143V15V14.85H2.57143H1.43571V13.3333V13.1833H1.28571H0.15V10.15H1.28571H1.43571V10V8.48333H2.42143V10V10.15H2.57143H3.70714V11.6667V11.8167H3.85714H4.99286V13.3333V13.4833H5.14286H6.42857H6.57857V13.3333V11.8167H7.71429H7.86429V11.6667V10.15H9H9.15V10V8.48333H10.2857H10.4357V8.33333V6.81667H11.5714H11.7214V6.66667V5.15H12.8571H13.0071V5V3.48333H14.1429H14.2929V3.33333V1.81667H15.4286H15.5786V1.66667V0.15H16.5643V1.66667V1.81667H16.7143H17.85V4.85H16.7143H16.5643V5V6.51667H15.4286H15.2786V6.66667V8.18333H14.1429H13.9929V8.33333V9.85H12.8571H12.7071V10V11.5167H11.5714H11.4214V11.6667V13.1833H10.2857H10.1357V13.3333V14.85H9H8.85V15V16.5167H7.71429H7.56429V16.6667V18.1833H6.42857Z" fill="white"/>
<path d="M6.42857 18.1833H6.27857V18.3333V19.85H5.29286V18.3333V18.1833H5.14286H4.00714V16.6667V16.5167H3.85714H2.72143V15V14.85H2.57143H1.43571V13.3333V13.1833H1.28571H0.15V10.15H1.28571H1.43571V10V8.48333H2.42143V10V10.15H2.57143H3.70714V11.6667V11.8167H3.85714H4.99286V13.3333V13.4833H5.14286H6.42857H6.57857V13.3333V11.8167H7.71429H7.86429V11.6667V10.15H9H9.15V10V8.48333H10.2857H10.4357V8.33333V6.81667H11.5714H11.7214V6.66667V5.15H12.8571H13.0071V5V3.48333H14.1429H14.2929V3.33333V1.81667H15.4286H15.5786V1.66667V0.15H16.5643V1.66667V1.81667H16.7143H17.85V4.85H16.7143H16.5643V5V6.51667H15.4286H15.2786V6.66667V8.18333H14.1429H13.9929V8.33333V9.85H12.8571H12.7071V10V11.5167H11.5714H11.4214V11.6667V13.1833H10.2857H10.1357V13.3333V14.85H9H8.85V15V16.5167H7.71429H7.56429V16.6667V18.1833H6.42857Z" stroke="white" stroke-width="0.3"/>
<path d="M6.42857 18.1833H6.27857V18.3333V19.85H5.29286V18.3333V18.1833H5.14286H4.00714V16.6667V16.5167H3.85714H2.72143V15V14.85H2.57143H1.43571V13.3333V13.1833H1.28571H0.15V10.15H1.28571H1.43571V10V8.48333H2.42143V10V10.15H2.57143H3.70714V11.6667V11.8167H3.85714H4.99286V13.3333V13.4833H5.14286H6.42857H6.57857V13.3333V11.8167H7.71429H7.86429V11.6667V10.15H9H9.15V10V8.48333H10.2857H10.4357V8.33333V6.81667H11.5714H11.7214V6.66667V5.15H12.8571H13.0071V5V3.48333H14.1429H14.2929V3.33333V1.81667H15.4286H15.5786V1.66667V0.15H16.5643V1.66667V1.81667H16.7143H17.85V4.85H16.7143H16.5643V5V6.51667H15.4286H15.2786V6.66667V8.18333H14.1429H13.9929V8.33333V9.85H12.8571H12.7071V10V11.5167H11.5714H11.4214V11.6667V13.1833H10.2857H10.1357V13.3333V14.85H9H8.85V15V16.5167H7.71429H7.56429V16.6667V18.1833H6.42857Z" stroke="#101010" stroke-width="0.3"/>
</svg>
