<svg width="1440" height="913" viewBox="0 0 1440 913" fill="none" xmlns="http://www.w3.org/2000/svg">
<rect width="1440" height="913" fill="#151515"/>
<rect x="370" y="85" width="963" height="609" fill="#D9D9D9" fill-opacity="0.03"/>
<rect x="371" y="86" width="961" height="607" stroke="white" stroke-opacity="0.11" stroke-width="2" stroke-dasharray="16 16"/>
<g filter="url(#filter0_d_291_124)">
<path fill-rule="evenodd" clip-rule="evenodd" d="M1344.66 711L1351.69 707.219L1340.63 686.318H1355L1323 654V698.955L1333.09 689.142L1344.66 711Z" fill="black"/>
<path d="M1343.33 711.702L1344.04 713.036L1345.37 712.321L1352.4 708.54L1353.72 707.835L1353.02 706.517L1343.12 687.818H1355H1358.6L1356.07 685.263L1324.07 652.945L1321.5 650.353V654V698.955V702.507L1324.05 700.03L1332.7 691.614L1343.33 711.702Z" stroke="white" stroke-width="3"/>
</g>
<defs>
<filter id="filter0_d_291_124" x="1318" y="645.706" width="46.1923" height="72.365" filterUnits="userSpaceOnUse" color-interpolation-filters="sRGB">
<feFlood flood-opacity="0" result="BackgroundImageFix"/>
<feColorMatrix in="SourceAlpha" type="matrix" values="0 0 0 0 0 0 0 0 0 0 0 0 0 0 0 0 0 0 127 0" result="hardAlpha"/>
<feOffset dy="1"/>
<feGaussianBlur stdDeviation="1"/>
<feComposite in2="hardAlpha" operator="out"/>
<feColorMatrix type="matrix" values="0 0 0 0 0 0 0 0 0 0 0 0 0 0 0 0 0 0 0.4049 0"/>
<feBlend mode="normal" in2="BackgroundImageFix" result="effect1_dropShadow_291_124"/>
<feBlend mode="normal" in="SourceGraphic" in2="effect1_dropShadow_291_124" result="shape"/>
</filter>
</defs>
</svg>
