<svg width="56" height="24" viewBox="0 0 56 24" fill="none" xmlns="http://www.w3.org/2000/svg">
<path d="M2.67921 23.7502C1.98231 23.7243 1.38865 23.4791 0.898238 23.0145C0.407825 22.5241 0.149713 21.9305 0.123901 21.2336V11.5931C0.149713 9.76047 0.407825 8.03112 0.898238 6.40502C1.41446 4.77891 2.25333 3.41092 3.41483 2.30103C4.60215 1.16534 6.0992 0.545872 7.90598 0.442627H22.8507C23.5476 0.468438 24.1283 0.72655 24.5929 1.21696C25.0833 1.68157 25.3415 2.26232 25.3673 2.95922C25.3673 3.68193 25.1221 4.3014 24.6316 4.81763C24.167 5.33385 23.5734 5.60487 22.8507 5.63068H9.22235C8.24153 5.6823 7.42847 6.05657 6.78319 6.75347C6.13791 7.45037 5.72493 8.25052 5.54425 9.15391C5.38939 10.0315 5.32486 10.9994 5.35067 12.0577V21.2336C5.32486 21.9563 5.05384 22.5628 4.53762 23.0532C4.02139 23.5178 3.40192 23.7502 2.67921 23.7502ZM7.17036 13.5676C7.17036 12.8449 7.42847 12.2383 7.9447 11.7479C8.43511 11.2317 9.04167 10.9736 9.76439 10.9736H22.8507C23.5734 10.9736 24.1799 11.2317 24.6704 11.7479C25.1866 12.2383 25.4447 12.8449 25.4447 13.5676C25.4447 14.2903 25.1995 14.9098 24.7091 15.426C24.1929 15.9164 23.5734 16.1617 22.8507 16.1617H9.76439C9.04167 16.1617 8.4222 15.9164 7.90598 15.426C7.41557 14.9098 7.17036 14.2903 7.17036 13.5676Z" fill="white"/>
<path d="M28.2323 3.03665C28.2323 2.31394 28.4775 1.70738 28.9679 1.21696C29.4841 0.700739 30.1036 0.442627 30.8263 0.442627H53.3595C54.0822 0.442627 54.7017 0.687833 55.2179 1.17825C55.7083 1.69447 55.9535 2.31394 55.9535 3.03665C55.9535 3.75937 55.6954 4.37884 55.1792 4.89506C54.6888 5.38547 54.0822 5.63068 53.3595 5.63068H44.7257V21.311C44.5708 22.8597 43.719 23.6985 42.1704 23.8276C41.4476 23.8276 40.8153 23.5953 40.2732 23.1307C39.757 22.6403 39.4989 22.0337 39.4989 21.311V5.63068H30.8263C30.1036 5.63068 29.4971 5.37257 29.0066 4.85634C28.4904 4.36593 28.2323 3.75937 28.2323 3.03665Z" fill="#9803FC"/>
</svg>
