<svg width="76" height="65" viewBox="0 0 76 65" fill="none" xmlns="http://www.w3.org/2000/svg">
<g filter="url(#filter0_f_335_283)">
<path d="M12.6792 43.7501C11.9823 43.7243 11.3887 43.4791 10.8982 43.0145C10.4078 42.5241 10.1497 41.9305 10.1239 41.2336V31.5931C10.1497 29.7605 10.4078 28.0311 10.8982 26.405C11.4145 24.7789 12.2533 23.4109 13.4148 22.301C14.6021 21.1653 16.0992 20.5459 17.906 20.4426H32.8507C33.5476 20.4684 34.1283 20.7266 34.5929 21.217C35.0833 21.6816 35.3415 22.2623 35.3673 22.9592C35.3673 23.6819 35.1221 24.3014 34.6316 24.8176C34.167 25.3339 33.5734 25.6049 32.8507 25.6307H19.2224C18.2415 25.6823 17.4285 26.0566 16.7832 26.7535C16.1379 27.4504 15.7249 28.2505 15.5443 29.1539C15.3894 30.0315 15.3249 30.9994 15.3507 32.0577V41.2336C15.3249 41.9563 15.0538 42.5628 14.5376 43.0532C14.0214 43.5178 13.4019 43.7501 12.6792 43.7501ZM17.1704 33.5676C17.1704 32.8449 17.4285 32.2384 17.9447 31.7479C18.4351 31.2317 19.0417 30.9736 19.7644 30.9736H32.8507C33.5734 30.9736 34.1799 31.2317 34.6704 31.7479C35.1866 32.2384 35.4447 32.8449 35.4447 33.5676C35.4447 34.2903 35.1995 34.9098 34.7091 35.426C34.1929 35.9164 33.5734 36.1617 32.8507 36.1617H19.7644C19.0417 36.1617 18.4222 35.9164 17.906 35.426C17.4156 34.9098 17.1704 34.2903 17.1704 33.5676Z" fill="white"/>
<path d="M38.2323 23.0367C38.2323 22.3139 38.4775 21.7074 38.9679 21.217C39.4842 20.7007 40.1036 20.4426 40.8263 20.4426H63.3595C64.0822 20.4426 64.7017 20.6878 65.2179 21.1782C65.7083 21.6945 65.9535 22.3139 65.9535 23.0367C65.9535 23.7594 65.6954 24.3788 65.1792 24.8951C64.6888 25.3855 64.0822 25.6307 63.3595 25.6307H54.7257V41.311C54.5708 42.8597 53.719 43.6985 52.1704 43.8276C51.4476 43.8276 50.8153 43.5953 50.2732 43.1307C49.757 42.6403 49.4989 42.0337 49.4989 41.311V25.6307H40.8263C40.1036 25.6307 39.4971 25.3726 39.0066 24.8563C38.4904 24.3659 38.2323 23.7594 38.2323 23.0367Z" fill="#9803FC"/>
</g>
<rect x="3.5" y="0.5" width="69" height="63.4248" rx="18.5" fill="#141414" stroke="#141414"/>
<path d="M12.6792 43.7501C11.9823 43.7243 11.3887 43.4791 10.8982 43.0145C10.4078 42.5241 10.1497 41.9305 10.1239 41.2336V31.5931C10.1497 29.7605 10.4078 28.0311 10.8982 26.405C11.4145 24.7789 12.2533 23.4109 13.4148 22.301C14.6021 21.1653 16.0992 20.5459 17.906 20.4426H32.8507C33.5476 20.4684 34.1283 20.7266 34.5929 21.217C35.0833 21.6816 35.3415 22.2623 35.3673 22.9592C35.3673 23.6819 35.1221 24.3014 34.6316 24.8176C34.167 25.3339 33.5734 25.6049 32.8507 25.6307H19.2224C18.2415 25.6823 17.4285 26.0566 16.7832 26.7535C16.1379 27.4504 15.7249 28.2505 15.5443 29.1539C15.3894 30.0315 15.3249 30.9994 15.3507 32.0577V41.2336C15.3249 41.9563 15.0538 42.5628 14.5376 43.0532C14.0214 43.5178 13.4019 43.7501 12.6792 43.7501ZM17.1704 33.5676C17.1704 32.8449 17.4285 32.2384 17.9447 31.7479C18.4351 31.2317 19.0417 30.9736 19.7644 30.9736H32.8507C33.5734 30.9736 34.1799 31.2317 34.6704 31.7479C35.1866 32.2384 35.4447 32.8449 35.4447 33.5676C35.4447 34.2903 35.1995 34.9098 34.7091 35.426C34.1929 35.9164 33.5734 36.1617 32.8507 36.1617H19.7644C19.0417 36.1617 18.4222 35.9164 17.906 35.426C17.4156 34.9098 17.1704 34.2903 17.1704 33.5676Z" fill="white"/>
<path d="M38.2323 23.0367C38.2323 22.3139 38.4775 21.7074 38.9679 21.217C39.4842 20.7007 40.1036 20.4426 40.8263 20.4426H63.3595C64.0822 20.4426 64.7017 20.6878 65.2179 21.1782C65.7083 21.6945 65.9535 22.3139 65.9535 23.0367C65.9535 23.7594 65.6954 24.3788 65.1792 24.8951C64.6888 25.3855 64.0822 25.6307 63.3595 25.6307H54.7257V41.311C54.5708 42.8597 53.719 43.6985 52.1704 43.8276C51.4476 43.8276 50.8153 43.5953 50.2732 43.1307C49.757 42.6403 49.4989 42.0337 49.4989 41.311V25.6307H40.8263C40.1036 25.6307 39.4971 25.3726 39.0066 24.8563C38.4904 24.3659 38.2323 23.7594 38.2323 23.0367Z" fill="#9803FC"/>
<defs>
<filter id="filter0_f_335_283" x="0.323901" y="10.6426" width="75.4296" height="42.985" filterUnits="userSpaceOnUse" color-interpolation-filters="sRGB">
<feFlood flood-opacity="0" result="BackgroundImageFix"/>
<feBlend mode="normal" in="SourceGraphic" in2="BackgroundImageFix" result="shape"/>
<feGaussianBlur stdDeviation="4.9" result="effect1_foregroundBlur_335_283"/>
</filter>
</defs>
</svg>
