<svg width="365" height="64" viewBox="0 0 365 64" fill="none" xmlns="http://www.w3.org/2000/svg">
<g filter="url(#filter0_d_294_146)">
<path d="M48.9453 46.3906C48.2422 46.3646 47.6432 46.1172 47.1484 45.6484C46.6536 45.1536 46.3932 44.5547 46.3672 43.8516V34.125C46.3932 32.276 46.6536 30.5312 47.1484 28.8906C47.6693 27.25 48.5156 25.8698 49.6875 24.75C50.8854 23.6042 52.3958 22.9792 54.2188 22.875H69.2969C70 22.901 70.5859 23.1615 71.0547 23.6562C71.5495 24.125 71.8099 24.7109 71.8359 25.4141C71.8359 26.1432 71.5885 26.7682 71.0938 27.2891C70.625 27.8099 70.026 28.0833 69.2969 28.1094H55.5469C54.5573 28.1615 53.737 28.5391 53.0859 29.2422C52.4349 29.9453 52.0182 30.7526 51.8359 31.6641C51.6797 32.5495 51.6146 33.526 51.6406 34.5938V43.8516C51.6146 44.5807 51.3411 45.1927 50.8203 45.6875C50.2995 46.1562 49.6745 46.3906 48.9453 46.3906ZM53.4766 36.1172C53.4766 35.388 53.737 34.776 54.2578 34.2812C54.7526 33.7604 55.3646 33.5 56.0938 33.5H69.2969C70.026 33.5 70.638 33.7604 71.1328 34.2812C71.6536 34.776 71.9141 35.388 71.9141 36.1172C71.9141 36.8464 71.6667 37.4714 71.1719 37.9922C70.651 38.487 70.026 38.7344 69.2969 38.7344H56.0938C55.3646 38.7344 54.7396 38.487 54.2188 37.9922C53.724 37.4714 53.4766 36.8464 53.4766 36.1172ZM80.7422 43.9297C80.5859 45.4922 79.7266 46.3385 78.1641 46.4688C77.4349 46.4688 76.7969 46.2344 76.25 45.7656C75.7292 45.2708 75.4688 44.6589 75.4688 43.9297V25.4141C75.4948 24.6849 75.7682 24.0859 76.2891 23.6172C76.8099 23.1224 77.4349 22.875 78.1641 22.875H80.0781H84.8828H94.5312C94.6875 22.875 94.8438 22.888 95 22.9141H95.2344C97.0573 22.9661 98.5547 23.3828 99.7266 24.1641C100.898 24.9453 101.745 25.8438 102.266 26.8594C102.786 27.849 103.047 28.8516 103.047 29.8672C103.047 30.9089 102.786 31.9375 102.266 32.9531C101.771 33.9427 100.924 34.8281 99.7266 35.6094C98.5547 36.3906 97.0573 36.8073 95.2344 36.8594H88.3594C88.5677 38.1615 88.9974 39.125 89.6484 39.75C90.2734 40.375 91.0677 40.6875 92.0312 40.6875H100.469C101.198 40.7135 101.797 40.987 102.266 41.5078C102.76 42.0286 103.008 42.6536 103.008 43.3828C102.982 44.0859 102.721 44.6849 102.227 45.1797C101.758 45.6484 101.172 45.8958 100.469 45.9219H91.3281C89.401 45.9479 87.6562 45.1927 86.0938 43.6562C84.5312 42.1198 83.5807 40.2969 83.2422 38.1875C82.7734 35.8438 82.5391 34.5286 82.5391 34.2422C82.5391 33.513 82.7865 32.901 83.2812 32.4062C83.8021 31.8854 84.4271 31.625 85.1562 31.625H95.4688C95.9635 31.599 96.3672 31.4948 96.6797 31.3125C97.0182 31.1042 97.2656 30.8828 97.4219 30.6484C97.5781 30.388 97.6562 30.1276 97.6562 29.8672C97.6562 29.6068 97.5781 29.3594 97.4219 29.125C97.2656 28.8646 97.0182 28.6432 96.6797 28.4609C96.3672 28.2526 95.9635 28.1354 95.4688 28.1094H84.8828H81.7578C81.0807 28.1354 80.7422 28.474 80.7422 29.125V43.9297ZM128.242 22.875C129.57 22.901 130.755 23.3177 131.797 24.125C132.839 24.9323 133.672 25.8958 134.297 27.0156C134.948 28.1354 135.43 29.3203 135.742 30.5703C136.055 31.8203 136.211 33.0964 136.211 34.3984C136.211 36.1172 135.938 37.8099 135.391 39.4766C134.87 41.1172 133.997 42.5755 132.773 43.8516C131.576 45.1276 130.065 45.8177 128.242 45.9219H114.609C112.786 45.8438 111.263 45.1667 110.039 43.8906C108.815 42.6146 107.943 41.1432 107.422 39.4766C106.927 37.8099 106.68 36.1172 106.68 34.3984C106.68 32.6797 106.94 31 107.461 29.3594C107.982 27.6927 108.841 26.2214 110.039 24.9453C111.263 23.6432 112.786 22.9531 114.609 22.875H115.352H127.5H128.242ZM126.914 40.6875C127.904 40.6354 128.724 40.2708 129.375 39.5938C130.052 38.8906 130.534 38.0833 130.82 37.1719C131.107 36.2604 131.25 35.3359 131.25 34.3984C131.25 33.4609 131.094 32.5495 130.781 31.6641C130.495 30.7526 130.026 29.9453 129.375 29.2422C128.724 28.5391 127.904 28.1615 126.914 28.1094H115.82C114.831 28.1615 114.01 28.5391 113.359 29.2422C112.708 29.9453 112.227 30.7526 111.914 31.6641C111.628 32.5495 111.484 33.4609 111.484 34.3984C111.484 35.3359 111.628 36.2604 111.914 37.1719C112.201 38.0833 112.669 38.8906 113.32 39.5938C113.997 40.2708 114.831 40.6354 115.82 40.6875H126.914ZM152.93 21.8203C154.284 21.8203 155.612 21.9766 156.914 22.2891C158.242 22.6016 159.505 23.0703 160.703 23.6953C161.901 24.2943 162.956 25.1016 163.867 26.1172C164.805 27.1328 165.312 28.3438 165.391 29.75V31.3906V43.8516C165.234 45.4141 164.375 46.2604 162.812 46.3906C162.083 46.3906 161.445 46.1562 160.898 45.6875C160.378 45.1927 160.117 44.5807 160.117 43.8516V30.9609C160.065 30.1536 159.753 29.4896 159.18 28.9688C158.633 28.4219 158.008 27.9922 157.305 27.6797C156.628 27.3672 155.911 27.1328 155.156 26.9766C154.427 26.8203 153.685 26.7422 152.93 26.7422C152.174 26.7422 151.419 26.8203 150.664 26.9766C149.935 27.1328 149.219 27.3672 148.516 27.6797C147.839 27.9922 147.214 28.4219 146.641 28.9688C146.094 29.4896 145.794 30.1536 145.742 30.9609V43.8516C145.612 45.4141 144.766 46.2604 143.203 46.3906C142.474 46.3906 141.836 46.1562 141.289 45.6875C140.768 45.1927 140.508 44.5807 140.508 43.8516V31.3906V29.75C140.586 28.3438 141.081 27.1328 141.992 26.1172C142.904 25.1016 143.958 24.2943 145.156 23.6953C146.354 23.0703 147.604 22.6016 148.906 22.2891C150.234 21.9766 151.576 21.8203 152.93 21.8203ZM169.57 25.4922C169.57 24.763 169.818 24.151 170.312 23.6562C170.833 23.1354 171.458 22.875 172.188 22.875H194.922C195.651 22.875 196.276 23.1224 196.797 23.6172C197.292 24.138 197.539 24.763 197.539 25.4922C197.539 26.2214 197.279 26.8464 196.758 27.3672C196.263 27.862 195.651 28.1094 194.922 28.1094H186.211V43.9297C186.055 45.4922 185.195 46.3385 183.633 46.4688C182.904 46.4688 182.266 46.2344 181.719 45.7656C181.198 45.2708 180.938 44.6589 180.938 43.9297V28.1094H172.188C171.458 28.1094 170.846 27.849 170.352 27.3281C169.831 26.8333 169.57 26.2214 169.57 25.4922Z" fill="white"/>
<path d="M200.898 25.4922C200.898 24.763 201.146 24.151 201.641 23.6562C202.161 23.1354 202.786 22.875 203.516 22.875H226.25C226.979 22.875 227.604 23.1224 228.125 23.6172C228.62 24.138 228.867 24.763 228.867 25.4922C228.867 26.2214 228.607 26.8464 228.086 27.3672C227.591 27.862 226.979 28.1094 226.25 28.1094H217.539V43.9297C217.383 45.4922 216.523 46.3385 214.961 46.4688C214.232 46.4688 213.594 46.2344 213.047 45.7656C212.526 45.2708 212.266 44.6589 212.266 43.9297V28.1094H203.516C202.786 28.1094 202.174 27.849 201.68 27.3281C201.159 26.8333 200.898 26.2214 200.898 25.4922ZM240.234 22.875H242.031H255.312C256.042 22.901 256.641 23.1745 257.109 23.6953C257.604 24.2161 257.852 24.8411 257.852 25.5703C257.721 27.1328 256.875 27.9792 255.312 28.1094H241.562C240.573 28.1615 239.753 28.5391 239.102 29.2422C238.451 29.9453 237.969 30.7526 237.656 31.6641C237.37 32.5495 237.227 33.4609 237.227 34.3984C237.227 35.3359 237.37 36.2604 237.656 37.1719C237.969 38.0573 238.451 38.8516 239.102 39.5547C239.753 40.2578 240.573 40.6354 241.562 40.6875H255.312C256.042 40.7135 256.641 40.987 257.109 41.5078C257.604 42.0286 257.852 42.6536 257.852 43.3828C257.826 44.0859 257.565 44.6849 257.07 45.1797C256.602 45.6484 256.016 45.8958 255.312 45.9219H240.977H240.234C238.411 45.8177 236.901 45.1276 235.703 43.8516C234.531 42.5495 233.685 41.0781 233.164 39.4375C232.669 37.7969 232.422 36.1172 232.422 34.3984C232.422 32.6797 232.682 31 233.203 29.3594C233.724 27.7188 234.57 26.2604 235.742 24.9844C236.914 23.6823 238.411 22.9792 240.234 22.875ZM257.773 34.2422C257.773 34.9714 257.513 35.5833 256.992 36.0781C256.497 36.599 255.885 36.8594 255.156 36.8594H243.359C242.63 36.8594 242.005 36.612 241.484 36.1172C240.99 35.5964 240.742 34.9714 240.742 34.2422C240.742 33.513 240.99 32.888 241.484 32.3672C242.005 31.8724 242.63 31.625 243.359 31.625H255.156C255.885 31.625 256.497 31.8854 256.992 32.4062C257.513 32.901 257.773 33.513 257.773 34.2422ZM270.547 39.8672C270.547 39.138 270.794 38.526 271.289 38.0312C271.81 37.5104 272.435 37.25 273.164 37.25H279.141L278.125 34.3594C277.708 33.2917 277.292 32.2891 276.875 31.3516C276.484 30.388 276.029 29.5156 275.508 28.7344C275.039 27.9531 274.505 27.5365 273.906 27.4844C273.281 27.5365 272.721 27.9531 272.227 28.7344C271.732 29.5156 271.276 30.388 270.859 31.3516C270.469 32.2891 270.065 33.2917 269.648 34.3594L265.938 44.5156C265.677 45.0625 265.339 45.5182 264.922 45.8828C264.531 46.2214 263.932 46.3906 263.125 46.3906C262.37 46.3906 261.745 46.1302 261.25 45.6094C260.781 45.0885 260.573 44.4635 260.625 43.7344C260.651 43.3958 260.729 43.0833 260.859 42.7969L265.156 31.7031C266.354 28.7865 267.552 26.4297 268.75 24.6328C269.922 22.862 271.641 21.9635 273.906 21.9375C276.146 21.9635 277.852 22.862 279.023 24.6328C280.221 26.3776 281.419 28.7344 282.617 31.7031L286.914 42.7969C287.044 43.0833 287.122 43.3958 287.148 43.7344C287.201 44.4635 286.979 45.0885 286.484 45.6094C286.016 46.1302 285.404 46.3906 284.648 46.3906C283.789 46.3906 283.151 46.2214 282.734 45.8828C282.344 45.5182 282.018 45.0625 281.758 44.5156L281.016 42.4844H273.164C272.435 42.4844 271.823 42.224 271.328 41.7031C270.807 41.2083 270.547 40.5964 270.547 39.8672ZM299.336 21.8203C300.247 21.8203 301.133 21.9766 301.992 22.2891C302.878 22.6016 303.724 23.0573 304.531 23.6562C304.661 23.7865 304.805 23.9167 304.961 24.0469C305.091 23.9167 305.234 23.7865 305.391 23.6562C306.198 23.0573 307.031 22.6016 307.891 22.2891C308.776 21.9766 309.661 21.8203 310.547 21.8203C311.458 21.8203 312.344 21.9766 313.203 22.2891C314.089 22.6016 314.922 23.0703 315.703 23.6953C316.51 24.2943 317.214 25.1016 317.812 26.1172C318.438 27.1328 318.75 28.3438 318.75 29.75V43.8516C318.594 45.4141 317.734 46.2604 316.172 46.3906C315.443 46.3906 314.805 46.1562 314.258 45.6875C313.737 45.1927 313.477 44.5807 313.477 43.8516V30.0625C313.477 29.4375 313.359 28.9167 313.125 28.5C312.891 28.0573 312.63 27.7188 312.344 27.4844C312.057 27.224 311.758 27.0417 311.445 26.9375C311.133 26.8073 310.82 26.7422 310.508 26.7422C310.195 26.7422 309.883 26.8073 309.57 26.9375C309.284 27.0417 308.997 27.224 308.711 27.4844C308.424 27.7188 308.164 28.0573 307.93 28.5C307.695 28.9167 307.565 29.4375 307.539 30.0625V43.8516C307.383 45.4141 306.523 46.2604 304.961 46.3906C304.232 46.3906 303.594 46.1562 303.047 45.6875C302.526 45.1927 302.266 44.5807 302.266 43.8516V30.0625C302.266 29.4375 302.148 28.9167 301.914 28.5C301.68 28.0573 301.419 27.7188 301.133 27.4844C300.846 27.224 300.547 27.0417 300.234 26.9375C299.922 26.8073 299.609 26.7422 299.297 26.7422C298.984 26.7422 298.672 26.8073 298.359 26.9375C298.073 27.0417 297.786 27.224 297.5 27.4844C297.214 27.7188 296.953 28.0573 296.719 28.5C296.484 28.9167 296.354 29.4375 296.328 30.0625V43.8516C296.198 45.4141 295.352 46.2604 293.789 46.3906C293.06 46.3906 292.422 46.1562 291.875 45.6875C291.354 45.1927 291.094 44.5807 291.094 43.8516V29.75C291.146 28.3438 291.471 27.1328 292.07 26.1172C292.669 25.1016 293.372 24.2943 294.18 23.6953C294.987 23.0703 295.82 22.6016 296.68 22.2891C297.565 21.9766 298.451 21.8203 299.336 21.8203Z" fill="#9803FC"/>
</g>
<g filter="url(#filter1_f_294_146)">
<path d="M48.9453 46.3906C48.2422 46.3646 47.6432 46.1172 47.1484 45.6484C46.6536 45.1536 46.3932 44.5547 46.3672 43.8516V34.125C46.3932 32.276 46.6536 30.5312 47.1484 28.8906C47.6693 27.25 48.5156 25.8698 49.6875 24.75C50.8854 23.6042 52.3958 22.9792 54.2188 22.875H69.2969C70 22.901 70.5859 23.1615 71.0547 23.6562C71.5495 24.125 71.8099 24.7109 71.8359 25.4141C71.8359 26.1432 71.5885 26.7682 71.0938 27.2891C70.625 27.8099 70.026 28.0833 69.2969 28.1094H55.5469C54.5573 28.1615 53.737 28.5391 53.0859 29.2422C52.4349 29.9453 52.0182 30.7526 51.8359 31.6641C51.6797 32.5495 51.6146 33.526 51.6406 34.5938V43.8516C51.6146 44.5807 51.3411 45.1927 50.8203 45.6875C50.2995 46.1562 49.6745 46.3906 48.9453 46.3906ZM53.4766 36.1172C53.4766 35.388 53.737 34.776 54.2578 34.2812C54.7526 33.7604 55.3646 33.5 56.0938 33.5H69.2969C70.026 33.5 70.638 33.7604 71.1328 34.2812C71.6536 34.776 71.9141 35.388 71.9141 36.1172C71.9141 36.8464 71.6667 37.4714 71.1719 37.9922C70.651 38.487 70.026 38.7344 69.2969 38.7344H56.0938C55.3646 38.7344 54.7396 38.487 54.2188 37.9922C53.724 37.4714 53.4766 36.8464 53.4766 36.1172ZM80.7422 43.9297C80.5859 45.4922 79.7266 46.3385 78.1641 46.4688C77.4349 46.4688 76.7969 46.2344 76.25 45.7656C75.7292 45.2708 75.4688 44.6589 75.4688 43.9297V25.4141C75.4948 24.6849 75.7682 24.0859 76.2891 23.6172C76.8099 23.1224 77.4349 22.875 78.1641 22.875H80.0781H84.8828H94.5312C94.6875 22.875 94.8438 22.888 95 22.9141H95.2344C97.0573 22.9661 98.5547 23.3828 99.7266 24.1641C100.898 24.9453 101.745 25.8438 102.266 26.8594C102.786 27.849 103.047 28.8516 103.047 29.8672C103.047 30.9089 102.786 31.9375 102.266 32.9531C101.771 33.9427 100.924 34.8281 99.7266 35.6094C98.5547 36.3906 97.0573 36.8073 95.2344 36.8594H88.3594C88.5677 38.1615 88.9974 39.125 89.6484 39.75C90.2734 40.375 91.0677 40.6875 92.0312 40.6875H100.469C101.198 40.7135 101.797 40.987 102.266 41.5078C102.76 42.0286 103.008 42.6536 103.008 43.3828C102.982 44.0859 102.721 44.6849 102.227 45.1797C101.758 45.6484 101.172 45.8958 100.469 45.9219H91.3281C89.401 45.9479 87.6562 45.1927 86.0938 43.6562C84.5312 42.1198 83.5807 40.2969 83.2422 38.1875C82.7734 35.8438 82.5391 34.5286 82.5391 34.2422C82.5391 33.513 82.7865 32.901 83.2812 32.4062C83.8021 31.8854 84.4271 31.625 85.1562 31.625H95.4688C95.9635 31.599 96.3672 31.4948 96.6797 31.3125C97.0182 31.1042 97.2656 30.8828 97.4219 30.6484C97.5781 30.388 97.6562 30.1276 97.6562 29.8672C97.6562 29.6068 97.5781 29.3594 97.4219 29.125C97.2656 28.8646 97.0182 28.6432 96.6797 28.4609C96.3672 28.2526 95.9635 28.1354 95.4688 28.1094H84.8828H81.7578C81.0807 28.1354 80.7422 28.474 80.7422 29.125V43.9297ZM128.242 22.875C129.57 22.901 130.755 23.3177 131.797 24.125C132.839 24.9323 133.672 25.8958 134.297 27.0156C134.948 28.1354 135.43 29.3203 135.742 30.5703C136.055 31.8203 136.211 33.0964 136.211 34.3984C136.211 36.1172 135.938 37.8099 135.391 39.4766C134.87 41.1172 133.997 42.5755 132.773 43.8516C131.576 45.1276 130.065 45.8177 128.242 45.9219H114.609C112.786 45.8438 111.263 45.1667 110.039 43.8906C108.815 42.6146 107.943 41.1432 107.422 39.4766C106.927 37.8099 106.68 36.1172 106.68 34.3984C106.68 32.6797 106.94 31 107.461 29.3594C107.982 27.6927 108.841 26.2214 110.039 24.9453C111.263 23.6432 112.786 22.9531 114.609 22.875H115.352H127.5H128.242ZM126.914 40.6875C127.904 40.6354 128.724 40.2708 129.375 39.5938C130.052 38.8906 130.534 38.0833 130.82 37.1719C131.107 36.2604 131.25 35.3359 131.25 34.3984C131.25 33.4609 131.094 32.5495 130.781 31.6641C130.495 30.7526 130.026 29.9453 129.375 29.2422C128.724 28.5391 127.904 28.1615 126.914 28.1094H115.82C114.831 28.1615 114.01 28.5391 113.359 29.2422C112.708 29.9453 112.227 30.7526 111.914 31.6641C111.628 32.5495 111.484 33.4609 111.484 34.3984C111.484 35.3359 111.628 36.2604 111.914 37.1719C112.201 38.0833 112.669 38.8906 113.32 39.5938C113.997 40.2708 114.831 40.6354 115.82 40.6875H126.914ZM152.93 21.8203C154.284 21.8203 155.612 21.9766 156.914 22.2891C158.242 22.6016 159.505 23.0703 160.703 23.6953C161.901 24.2943 162.956 25.1016 163.867 26.1172C164.805 27.1328 165.312 28.3438 165.391 29.75V31.3906V43.8516C165.234 45.4141 164.375 46.2604 162.812 46.3906C162.083 46.3906 161.445 46.1562 160.898 45.6875C160.378 45.1927 160.117 44.5807 160.117 43.8516V30.9609C160.065 30.1536 159.753 29.4896 159.18 28.9688C158.633 28.4219 158.008 27.9922 157.305 27.6797C156.628 27.3672 155.911 27.1328 155.156 26.9766C154.427 26.8203 153.685 26.7422 152.93 26.7422C152.174 26.7422 151.419 26.8203 150.664 26.9766C149.935 27.1328 149.219 27.3672 148.516 27.6797C147.839 27.9922 147.214 28.4219 146.641 28.9688C146.094 29.4896 145.794 30.1536 145.742 30.9609V43.8516C145.612 45.4141 144.766 46.2604 143.203 46.3906C142.474 46.3906 141.836 46.1562 141.289 45.6875C140.768 45.1927 140.508 44.5807 140.508 43.8516V31.3906V29.75C140.586 28.3438 141.081 27.1328 141.992 26.1172C142.904 25.1016 143.958 24.2943 145.156 23.6953C146.354 23.0703 147.604 22.6016 148.906 22.2891C150.234 21.9766 151.576 21.8203 152.93 21.8203ZM169.57 25.4922C169.57 24.763 169.818 24.151 170.312 23.6562C170.833 23.1354 171.458 22.875 172.188 22.875H194.922C195.651 22.875 196.276 23.1224 196.797 23.6172C197.292 24.138 197.539 24.763 197.539 25.4922C197.539 26.2214 197.279 26.8464 196.758 27.3672C196.263 27.862 195.651 28.1094 194.922 28.1094H186.211V43.9297C186.055 45.4922 185.195 46.3385 183.633 46.4688C182.904 46.4688 182.266 46.2344 181.719 45.7656C181.198 45.2708 180.938 44.6589 180.938 43.9297V28.1094H172.188C171.458 28.1094 170.846 27.849 170.352 27.3281C169.831 26.8333 169.57 26.2214 169.57 25.4922Z" fill="white"/>
<path d="M200.898 25.4922C200.898 24.763 201.146 24.151 201.641 23.6562C202.161 23.1354 202.786 22.875 203.516 22.875H226.25C226.979 22.875 227.604 23.1224 228.125 23.6172C228.62 24.138 228.867 24.763 228.867 25.4922C228.867 26.2214 228.607 26.8464 228.086 27.3672C227.591 27.862 226.979 28.1094 226.25 28.1094H217.539V43.9297C217.383 45.4922 216.523 46.3385 214.961 46.4688C214.232 46.4688 213.594 46.2344 213.047 45.7656C212.526 45.2708 212.266 44.6589 212.266 43.9297V28.1094H203.516C202.786 28.1094 202.174 27.849 201.68 27.3281C201.159 26.8333 200.898 26.2214 200.898 25.4922ZM240.234 22.875H242.031H255.312C256.042 22.901 256.641 23.1745 257.109 23.6953C257.604 24.2161 257.852 24.8411 257.852 25.5703C257.721 27.1328 256.875 27.9792 255.312 28.1094H241.562C240.573 28.1615 239.753 28.5391 239.102 29.2422C238.451 29.9453 237.969 30.7526 237.656 31.6641C237.37 32.5495 237.227 33.4609 237.227 34.3984C237.227 35.3359 237.37 36.2604 237.656 37.1719C237.969 38.0573 238.451 38.8516 239.102 39.5547C239.753 40.2578 240.573 40.6354 241.562 40.6875H255.312C256.042 40.7135 256.641 40.987 257.109 41.5078C257.604 42.0286 257.852 42.6536 257.852 43.3828C257.826 44.0859 257.565 44.6849 257.07 45.1797C256.602 45.6484 256.016 45.8958 255.312 45.9219H240.977H240.234C238.411 45.8177 236.901 45.1276 235.703 43.8516C234.531 42.5495 233.685 41.0781 233.164 39.4375C232.669 37.7969 232.422 36.1172 232.422 34.3984C232.422 32.6797 232.682 31 233.203 29.3594C233.724 27.7188 234.57 26.2604 235.742 24.9844C236.914 23.6823 238.411 22.9792 240.234 22.875ZM257.773 34.2422C257.773 34.9714 257.513 35.5833 256.992 36.0781C256.497 36.599 255.885 36.8594 255.156 36.8594H243.359C242.63 36.8594 242.005 36.612 241.484 36.1172C240.99 35.5964 240.742 34.9714 240.742 34.2422C240.742 33.513 240.99 32.888 241.484 32.3672C242.005 31.8724 242.63 31.625 243.359 31.625H255.156C255.885 31.625 256.497 31.8854 256.992 32.4062C257.513 32.901 257.773 33.513 257.773 34.2422ZM270.547 39.8672C270.547 39.138 270.794 38.526 271.289 38.0312C271.81 37.5104 272.435 37.25 273.164 37.25H279.141L278.125 34.3594C277.708 33.2917 277.292 32.2891 276.875 31.3516C276.484 30.388 276.029 29.5156 275.508 28.7344C275.039 27.9531 274.505 27.5365 273.906 27.4844C273.281 27.5365 272.721 27.9531 272.227 28.7344C271.732 29.5156 271.276 30.388 270.859 31.3516C270.469 32.2891 270.065 33.2917 269.648 34.3594L265.938 44.5156C265.677 45.0625 265.339 45.5182 264.922 45.8828C264.531 46.2214 263.932 46.3906 263.125 46.3906C262.37 46.3906 261.745 46.1302 261.25 45.6094C260.781 45.0885 260.573 44.4635 260.625 43.7344C260.651 43.3958 260.729 43.0833 260.859 42.7969L265.156 31.7031C266.354 28.7865 267.552 26.4297 268.75 24.6328C269.922 22.862 271.641 21.9635 273.906 21.9375C276.146 21.9635 277.852 22.862 279.023 24.6328C280.221 26.3776 281.419 28.7344 282.617 31.7031L286.914 42.7969C287.044 43.0833 287.122 43.3958 287.148 43.7344C287.201 44.4635 286.979 45.0885 286.484 45.6094C286.016 46.1302 285.404 46.3906 284.648 46.3906C283.789 46.3906 283.151 46.2214 282.734 45.8828C282.344 45.5182 282.018 45.0625 281.758 44.5156L281.016 42.4844H273.164C272.435 42.4844 271.823 42.224 271.328 41.7031C270.807 41.2083 270.547 40.5964 270.547 39.8672ZM299.336 21.8203C300.247 21.8203 301.133 21.9766 301.992 22.2891C302.878 22.6016 303.724 23.0573 304.531 23.6562C304.661 23.7865 304.805 23.9167 304.961 24.0469C305.091 23.9167 305.234 23.7865 305.391 23.6562C306.198 23.0573 307.031 22.6016 307.891 22.2891C308.776 21.9766 309.661 21.8203 310.547 21.8203C311.458 21.8203 312.344 21.9766 313.203 22.2891C314.089 22.6016 314.922 23.0703 315.703 23.6953C316.51 24.2943 317.214 25.1016 317.812 26.1172C318.438 27.1328 318.75 28.3438 318.75 29.75V43.8516C318.594 45.4141 317.734 46.2604 316.172 46.3906C315.443 46.3906 314.805 46.1562 314.258 45.6875C313.737 45.1927 313.477 44.5807 313.477 43.8516V30.0625C313.477 29.4375 313.359 28.9167 313.125 28.5C312.891 28.0573 312.63 27.7188 312.344 27.4844C312.057 27.224 311.758 27.0417 311.445 26.9375C311.133 26.8073 310.82 26.7422 310.508 26.7422C310.195 26.7422 309.883 26.8073 309.57 26.9375C309.284 27.0417 308.997 27.224 308.711 27.4844C308.424 27.7188 308.164 28.0573 307.93 28.5C307.695 28.9167 307.565 29.4375 307.539 30.0625V43.8516C307.383 45.4141 306.523 46.2604 304.961 46.3906C304.232 46.3906 303.594 46.1562 303.047 45.6875C302.526 45.1927 302.266 44.5807 302.266 43.8516V30.0625C302.266 29.4375 302.148 28.9167 301.914 28.5C301.68 28.0573 301.419 27.7188 301.133 27.4844C300.846 27.224 300.547 27.0417 300.234 26.9375C299.922 26.8073 299.609 26.7422 299.297 26.7422C298.984 26.7422 298.672 26.8073 298.359 26.9375C298.073 27.0417 297.786 27.224 297.5 27.4844C297.214 27.7188 296.953 28.0573 296.719 28.5C296.484 28.9167 296.354 29.4375 296.328 30.0625V43.8516C296.198 45.4141 295.352 46.2604 293.789 46.3906C293.06 46.3906 292.422 46.1562 291.875 45.6875C291.354 45.1927 291.094 44.5807 291.094 43.8516V29.75C291.146 28.3438 291.471 27.1328 292.07 26.1172C292.669 25.1016 293.372 24.2943 294.18 23.6953C294.987 23.0703 295.82 22.6016 296.68 22.2891C297.565 21.9766 298.451 21.8203 299.336 21.8203Z" fill="#9803FC"/>
</g>
<defs>
<filter id="filter0_d_294_146" x="42.3672" y="21.8203" width="280.383" height="32.6484" filterUnits="userSpaceOnUse" color-interpolation-filters="sRGB">
<feFlood flood-opacity="0" result="BackgroundImageFix"/>
<feColorMatrix in="SourceAlpha" type="matrix" values="0 0 0 0 0 0 0 0 0 0 0 0 0 0 0 0 0 0 127 0" result="hardAlpha"/>
<feOffset dy="4"/>
<feGaussianBlur stdDeviation="2"/>
<feComposite in2="hardAlpha" operator="out"/>
<feColorMatrix type="matrix" values="0 0 0 0 0 0 0 0 0 0 0 0 0 0 0 0 0 0 0.25 0"/>
<feBlend mode="normal" in2="BackgroundImageFix" result="effect1_dropShadow_294_146"/>
<feBlend mode="normal" in="SourceGraphic" in2="effect1_dropShadow_294_146" result="shape"/>
</filter>
<filter id="filter1_f_294_146" x="38.9672" y="14.4203" width="287.183" height="39.4484" filterUnits="userSpaceOnUse" color-interpolation-filters="sRGB">
<feFlood flood-opacity="0" result="BackgroundImageFix"/>
<feBlend mode="normal" in="SourceGraphic" in2="BackgroundImageFix" result="shape"/>
<feGaussianBlur stdDeviation="3.7" result="effect1_foregroundBlur_294_146"/>
</filter>
</defs>
</svg>
